{
  "accessors": [
    {
      "bufferView": 1,
      "componentType": 5126,
      "count": 5912,
      "max": [
        12.896530151367188,
        11.925259590148926,
        13.367179870605469
      ],
      "min": [
        -8.4467000961303711,
        -18.898700714111328,
        -7.6185002326965332
      ],
      "type": "VEC3"
    },
    {
      "bufferView": 1,
      "byteOffset": 70944,
      "componentType": 5126,
      "count": 5912,
      "max": [
        1,
        1,
        1
      ],
      "min": [
        -1,
        -1,
        -1
      ],
      "type": "VEC3"
    },
    {
      "bufferView": 1,
      "byteOffset": 141888,
      "componentType": 5126,
      "count": 5912,
      "max": [
        1,
        1,
        1
      ],
      "min": [
        1,
        1,
        1
      ],
      "type": "VEC3"
    },
    {
      "bufferView": 0,
      "componentType": 5125,
      "count": 35304,
      "max": [
        5911
      ],
      "min": [
        0
      ],
      "type": "SCALAR"
    },
    {
      "bufferView": 1,
      "byteOffset": 212832,
      "componentType": 5126,
      "count": 1248,
      "max": [
        11.861100196838379,
        15.971929550170898,
        12.328760147094727
      ],
      "min": [
        -7.0994901657104492,
        -19.797500610351562,
        -9.8002300262451172
      ],
      "type": "VEC3"
    },
    {
      "bufferView": 1,
      "byteOffset": 227808,
      "componentType": 5126,
      "count": 1248,
      "max": [
        1,
        0.99996775388717651,
        0.99995750188827515
      ],
      "min": [
        -1,
        -0.99996775388717651,
        -0.9999808669090271
      ],
      "type": "VEC3"
    },
    {
      "bufferView": 1,
      "byteOffset": 242784,
      "componentType": 5126,
      "count": 1248,
      "max": [
        1,
        1,
        1
      ],
      "min": [
        1,
        1,
        1
      ],
      "type": "VEC3"
    },
    {
      "bufferView": 0,
      "byteOffset": 141216,
      "componentType": 5125,
      "count": 7332,
      "max": [
        1247
      ],
      "min": [
        0
      ],
      "type": "SCALAR"
    },
    {
      "bufferView": 1,
      "byteOffset": 257760,
      "componentType": 5126,
      "count": 5784,
      "max": [
        7.4923000335693359,
        17.31627082824707,
        8.3388395309448242
      ],
      "min": [
        -6.9349098205566406,
        -20.582790374755859,
        -10.726320266723633
      ],
      "type": "VEC3"
    },
    {
      "bufferView": 1,
      "byteOffset": 327168,
      "componentType": 5126,
      "count": 5784,
      "max": [
        1,
        1,
        1
      ],
      "min": [
        -1,
        -1,
        -1
      ],
      "type": "VEC3"
    },
    {
      "bufferView": 1,
      "byteOffset": 396576,
      "componentType": 5126,
      "count": 5784,
      "max": [
        1,
        1,
        1
      ],
      "min": [
        1,
        1,
        1
      ],
      "type": "VEC3"
    },
    {
      "bufferView": 0,
      "byteOffset": 170544,
      "componentType": 5125,
      "count": 34560,
      "max": [
        5783
      ],
      "min": [
        0
      ],
      "type": "SCALAR"
    }
  ],
  "asset": {
    "extras": {
      "author": "brutebandit (https://sketchfab.com/brutebandit)",
      "license": "CC-BY-4.0 (http://creativecommons.org/licenses/by/4.0/)",
      "source": "https://sketchfab.com/3d-models/glucose-molecule-2b4c96af7c0c41debf1bd654c1103a00",
      "title": "Glucose Molecule"
    },
    "generator": "Sketchfab-6.97.0",
    "version": "2.0"
  },
  "bufferViews": [
    {
      "buffer": 0,
      "byteLength": 308784,
      "byteOffset": 0,
      "name": "floatBufferViews",
      "target": 34963
    },
    {
      "buffer": 0,
      "byteLength": 465984,
      "byteOffset": 308784,
      "byteStride": 12,
      "name": "floatBufferViews",
      "target": 34962
    }
  ],
  "buffers": [
    {
      "byteLength": 774768,
      "uri": "scene.bin"
    }
  ],
  "materials": [
    {
      "doubleSided": true,
      "emissiveFactor": [
        0,
        0,
        0
      ],
      "name": "Material",
      "pbrMetallicRoughness": {
        "baseColorFactor": [
          0.80000007149999997,
          0.025358285800000002,
          0.0088645713000000004,
          1
        ],
        "metallicFactor": 0,
        "roughnessFactor": 0.59999999999999998
      }
    },
    {
      "doubleSided": true,
      "emissiveFactor": [
        0,
        0,
        0
      ],
      "name": "Material.001",
      "pbrMetallicRoughness": {
        "baseColorFactor": [
          0.80000001190000003,
          0.80000001190000003,
          0.80000001190000003,
          1
        ],
        "metallicFactor": 0,
        "roughnessFactor": 0.59999999999999998
      }
    },
    {
      "doubleSided": true,
      "emissiveFactor": [
        0,
        0,
        0
      ],
      "name": "Material.002",
      "pbrMetallicRoughness": {
        "baseColorFactor": [
          0,
          0.1797714084,
          0.80000007149999997,
          1
        ],
        "metallicFactor": 0,
        "roughnessFactor": 0.59999999999999998
      }
    }
  ],
  "meshes": [
    {
      "name": "Sphere.014_0",
      "primitives": [
        {
          "attributes": {
            "COLOR_0": 2,
            "NORMAL": 1,
            "POSITION": 0
          },
          "indices": 3,
          "material": 0,
          "mode": 4
        }
      ]
    },
    {
      "name": "Sphere.014_1",
      "primitives": [
        {
          "attributes": {
            "COLOR_0": 6,
            "NORMAL": 5,
            "POSITION": 4
          },
          "indices": 7,
          "material": 1,
          "mode": 4
        }
      ]
    },
    {
      "name": "Sphere.014_2",
      "primitives": [
        {
          "attributes": {
            "COLOR_0": 10,
            "NORMAL": 9,
            "POSITION": 8
          },
          "indices": 11,
          "material": 2,
          "mode": 4
        }
      ]
    }
  ],
  "nodes": [
    {
      "children": [
        1
      ],
      "name": "RootNode (gltf orientation matrix)",
      "rotation": [
        -0.70710678118654746,
        -0,
        -0,
        0.70710678118654757
      ]
    },
    {
      "children": [
        2
      ],
      "name": "RootNode (model correction matrix)"
    },
    {
      "children": [
        3,
        5
      ],
      "name": "Root"
    },
    {
      "children": [
        4
      ],
      "matrix": [
        -0.29086000000000006,
        0.95517000000000007,
        -0.05519000000000001,
        0,
        -0.77110000000000001,
        -0.19988000000000003,
        0.60452000000000006,
        0,
        0.56639000000000006,
        0.21839000000000003,
        0.7946700000000001,
        0,
        4.0762500000000008,
        1.00545,
        5.9038600000000008,
        1
      ],
      "name": "Lamp"
    },
    {
      "name": "Lamp"
    },
    {
      "children": [
        6,
        7,
        8
      ],
      "matrix": [
        0.34512000000000009,
        0,
        0,
        0,
        0,
        0.34512000000000009,
        0,
        0,
        0,
        0,
        0.34512000000000009,
        0,
        0.2341,
        -0.95234000000000008,
        0.24031000000000002,
        1
      ],
      "name": "Sphere.014"
    },
    {
      "mesh": 0,
      "name": "Sphere.014_0"
    },
    {
      "mesh": 1,
      "name": "Sphere.014_1"
    },
    {
      "mesh": 2,
      "name": "Sphere.014_2"
    }
  ],
  "scene": 0,
  "scenes": [
    {
      "name": "OSG_Scene",
      "nodes": [
        0
      ]
    }
  ]
}

