<?xml version="1.0" ?><svg data-name="Layer 3" id="Layer_3" viewBox="0 0 48 48" xmlns="http://www.w3.org/2000/svg"><defs><style>.cls-1{fill:#a8c4ff;}.cls-2{fill:#3cb16f;}.cls-3{fill:#e1e8ff;}.cls-4{fill:#686886;opacity:0.5;}.cls-5{fill:#e0e8f4;opacity:0.44;}</style></defs><circle class="cls-1" cx="24" cy="24" r="22"/><path class="cls-2" d="M40.47446,11.3116c-.26606.97211-1.494,1.27907-2.17954,2.01585a6.82032,6.82032,0,0,0-1.07441,2.49675,2.38148,2.38148,0,0,1-1.38143,1.65767,2.34611,2.34611,0,0,0-1.64743.706c-1.146.35812-1.17677-1.26882-.62417-1.934-1.88282.54235-2.53772,1.3507-2.79353,1.97487-.51163,1.20744.22515,2.36372-.60369,3.32558a2.40384,2.40384,0,0,1-1.3507.706c-1.56561.33769-2.60929-.88-3.00838-.573-.81859.63442,2.98789,6.0679,2.22045,6.71256-.39908.33769-1.934-.67532-2.8242-1.78046a5.56452,5.56452,0,0,1-1.19719-2.96746c-.573-2.466-2.14881-4.00091-3.213-3.85764-1.146.15345-2.42511,2.34324-1.91348,5.29022-1.74973-.63441-3.50976-2.3842-3.59164-4.31811-.532-1.85209-2.44553-2.88559-3.71442-4.23629.84932,2.44559.67538,5.7302,2.86517,7.40836a14.41015,14.41015,0,0,1-2.47633.85956c-3.96.98229-4.63531-1.55537-4.51253-6.57959-4.15442,11.26606,4.99349,6.87631,2.07718,13.55814a10.32435,10.32435,0,0,0-2.773,5.74051c-.01024.04091-.01024.07164-.02048.11254a.31036.31036,0,0,1-.05115-.07163A22.077,22.077,0,0,1,2,24,21.78433,21.78433,0,0,1,4.4456,13.93114c.76744.63447,1.20743.65489,1.46324.55259.67539-.24557.49115-1.39161,1.48374-2.41487a3.181,3.181,0,0,1,1.25858-.81865c1.76-.59344,3.11074,1.0335,3.94976.42981a1.87466,1.87466,0,0,0,.01024-2.49674,1.89256,1.89256,0,0,0-1.27907-.53212c-.42975,1.07441-1.43252,1.46325-1.91349,1.22792a.95411.95411,0,0,1-.40926-.5526,1.62212,1.62212,0,0,1-.07164-.40926V8.907a2.0633,2.0633,0,0,1,.24558-1.15629c.08187-.07163.15351-.14327.23532-.2149.07164-.07158.15352-.133.2354-.2046a.05469.05469,0,0,1,.0409-.03073,11.49078,11.49078,0,0,1,4.81956-2.25118,5.43648,5.43648,0,0,1,1.86227-.07163,12.37311,12.37311,0,0,1,3.19262,1.494A3.88051,3.88051,0,0,1,21.68743,7.986C26.8651,11.61863,34.65213,8.84558,40.47446,11.3116Z"/><path class="cls-2" d="M35.83873,20.45613a10.42488,10.42488,0,0,1-3.13636,1.4529c-.18855.06229-.4227.2144-.34564.39741a.3356.3356,0,0,0,.08876.11105,2.29063,2.29063,0,0,0,1.87362.56767.97668.97668,0,0,0,.4471-.166,2.33717,2.33717,0,0,0,.3573-.43626c.6186-.77046,1.931-.69424,2.50873-1.4958a2.5357,2.5357,0,0,0,.29694-.63049c.1756-.48386.95635-1.94263-.14264-1.54934C36.969,18.99986,36.50537,19.94589,35.83873,20.45613Z"/><path class="cls-2" d="M26.368,30.17549a5.489,5.489,0,0,0,2.71112,1.40013.86914.86914,0,0,1,.60153.19185c.20392.23535.03846.609-.18877.82191a2.34048,2.34048,0,0,1-2.33328.36524,5.78353,5.78353,0,0,1-2.03014-1.39327A3.49463,3.49463,0,0,1,23.89535,29.622c-.08269-.6351-.31263-1.48046.48282-1.00971A19.92014,19.92014,0,0,1,26.368,30.17549Z"/><path class="cls-2" d="M35.84386,27.4336a.28479.28479,0,0,0,.1782-.00784,2.99851,2.99851,0,0,0,.48079-1.68754c-.142-.27075-.625-.333-.89438-.29769-.40664.05331-.42915.08268-.44238.39733-.00419.09979.17213.33627.19182.46817.02561.17155-.07628.346-.05485.50627C35.35607,27.20881,35.39334,27.35609,35.84386,27.4336Z"/><path class="cls-2" d="M31.28821,30.15394c-.04875.0263-.10287.06346-.10458.11882-.002.06345.064.10359.11548.14075a.91325.91325,0,0,1,.27269.77985,1.5797,1.5797,0,0,0,.11154.84069.8954.8954,0,0,0,.75587.38835,2.64237,2.64237,0,0,0,.86557-.17392l1.40827-.45185c.06325-.0203.13785-.054.14391-.12011.0071-.07748-.08225-.12149-.14719-.16433a.61488.61488,0,0,1-.20823-.60325c.08961-.66071.37075-1.9318-.73713-1.87828-.42155.02036-.829.40329-1.19481.58025C32.15147,29.81319,31.69821,29.93282,31.28821,30.15394Z"/><path class="cls-2" d="M33.38693,34.21859a.61164.61164,0,0,1,.465.497q-.10545.02546-.21321.04839c-.2842.06017-1.62041.33822-1.5901-.13109C32.08053,34.13861,33.10872,34.1351,33.38693,34.21859Z"/><path class="cls-2" d="M43.30214,30.984c-.24941.0057-.393.27725-.59251.42709a1.35631,1.35631,0,0,1-.66114.20251l-2.37478.2968a1.21594,1.21594,0,0,1-1.43948-.9106.90469.90469,0,0,1,.42327-1.17886c.54615-.19073,1.56906.36809,2.10381.52Q42.02207,30.69908,43.30214,30.984Z"/><path class="cls-2" d="M41.53862,37.28184a21.96036,21.96036,0,0,1-10.80558,7.654,5.0455,5.0455,0,0,1,.55254-2.39445,8.96974,8.96974,0,0,1,.91071-1.30973A4.3436,4.3436,0,0,0,33.24,38.50976a1.03423,1.03423,0,0,1,.02042-.47072c.10237-.29672.44006-.40927.73678-.49114,1.44276-.36836,3.039-.64466,3.99072-1.7907a2.97824,2.97824,0,0,1,.573-.61393.58679.58679,0,0,1,.7572.01024.772.772,0,0,1,.19442.35812C39.56374,35.81859,39.98325,36.35071,41.53862,37.28184Z"/><path class="cls-3" d="M38.11074,7.12652a29.47227,29.47227,0,0,1-6.12936.573c-.53205.01024-1.1767-.09212-1.39161-.6549-.1023-.266-.07164-.58326-.17394-.83907a1.2905,1.2905,0,0,0-1.15628-.60369,14.67763,14.67763,0,0,1-5.18791-1.73955,23.64016,23.64016,0,0,1-2.78323-1.68839A21.55494,21.55494,0,0,1,24,2c.7572,0,1.51446.04091,2.25118.11254.27629.03073.55253.0614.82883.11255.12279.01024.24557.03072.35811.05121a13.18393,13.18393,0,0,1,1.51447.29672,14.74776,14.74776,0,0,1,1.74972.481A21.92208,21.92208,0,0,1,38.11074,7.12652Z"/><path class="cls-4" d="M36.4803,5.89179A21.98979,21.98979,0,0,1,5.89167,36.48024,21.994,21.994,0,1,0,36.4803,5.89179Z"/><circle class="cls-5" cx="12.23256" cy="14.27907" r="6.65116"/></svg>